<svg xmlns="http://www.w3.org/2000/svg" width="141.818" height="157.334" viewBox="0 0 141.818 157.334">
  <g id="Group_430" data-name="Group 430" transform="translate(-887.5 -2106.5)">
    <path id="Path_16" data-name="Path 16" d="M141.618,71.182A70.241,70.241,0,0,0,71.337.9C32.49.645.8,32.336.8,71.182a70.405,70.405,0,0,0,70.281,70.281,74.692,74.692,0,0,0,18.656-2.556s-8.945,2.3-.256.256c8.434,4.856,33.991,17.634,33.991,17.634l-7.923-31.179A70.276,70.276,0,0,0,141.618,71.182Zm-111.683,0a41.4,41.4,0,1,1,41.4,41.4A41.557,41.557,0,0,1,29.935,71.182Z" transform="translate(887.2 2106.1)" fill="none" stroke="rgba(255,255,255,0.3)" stroke-width="1"/>
  </g>
</svg>
